<svg width="47" height="23" viewBox="0 0 47 23" fill="none" xmlns="http://www.w3.org/2000/svg">
<path d="M2.892 12.108C2.036 12.108 1.38 11.836 0.924 11.292C0.476 10.748 0.252 10.052 0.252 9.204C0.252 8.356 0.48 7.66 0.936 7.116C1.392 6.564 2.052 6.288 2.916 6.288C3.468 6.288 3.916 6.396 4.26 6.612C4.612 6.82 4.788 7.096 4.788 7.44C4.788 7.776 4.648 8.04 4.368 8.232C4.088 8.424 3.736 8.52 3.312 8.52C3.552 8.264 3.672 7.916 3.672 7.476C3.672 7.22 3.592 7.008 3.432 6.84C3.28 6.664 3.08 6.576 2.832 6.576C2.376 6.576 2.04 6.836 1.824 7.356C1.616 7.876 1.512 8.492 1.512 9.204C1.512 9.66 1.576 10.076 1.704 10.452C1.84 10.828 2.032 11.128 2.28 11.352C2.536 11.568 2.828 11.676 3.156 11.676C3.532 11.676 3.844 11.6 4.092 11.448C4.348 11.288 4.58 11.068 4.788 10.788L4.932 10.896C4.716 11.256 4.436 11.548 4.092 11.772C3.756 11.996 3.356 12.108 2.892 12.108ZM6.63647 9.348C6.46847 9.444 6.26847 9.492 6.03647 9.492C5.86847 9.492 5.73647 9.444 5.64047 9.348C5.54447 9.244 5.49647 9.1 5.49647 8.916C5.49647 8.644 5.62847 8.428 5.89247 8.268C6.16447 8.1 6.51647 8.016 6.94847 8.016C7.46047 8.016 7.86047 8.128 8.14847 8.352C8.44447 8.576 8.59247 8.88 8.59247 9.264V11.34C8.59247 11.564 8.67247 11.676 8.83247 11.676C8.98447 11.676 9.13247 11.616 9.27647 11.496L9.37247 11.616C9.07647 11.944 8.72447 12.108 8.31647 12.108C8.07647 12.108 7.89247 12.048 7.76447 11.928C7.64447 11.808 7.57247 11.62 7.54847 11.364H7.50047C7.37247 11.596 7.20047 11.78 6.98447 11.916C6.77647 12.044 6.53647 12.108 6.26447 12.108C5.96047 12.108 5.71647 12.016 5.53247 11.832C5.34847 11.64 5.25647 11.392 5.25647 11.088C5.25647 10.744 5.42047 10.472 5.74847 10.272C6.07647 10.072 6.52047 9.972 7.08047 9.972C7.18447 9.972 7.33247 9.98 7.52447 9.996V9.396C7.52447 9.004 7.47647 8.724 7.38047 8.556C7.28447 8.38 7.12847 8.292 6.91247 8.292C6.76047 8.292 6.64047 8.34 6.55247 8.436C6.46447 8.532 6.42047 8.656 6.42047 8.808C6.42047 9.048 6.49247 9.228 6.63647 9.348ZM6.81647 11.508C7.28847 11.508 7.52447 11.08 7.52447 10.224C7.12447 10.224 6.82447 10.292 6.62447 10.428C6.42447 10.556 6.32447 10.74 6.32447 10.98C6.32447 11.14 6.36847 11.268 6.45647 11.364C6.54447 11.46 6.66447 11.508 6.81647 11.508ZM14.1033 11.64C13.8233 11.952 13.4753 12.108 13.0593 12.108C12.8033 12.108 12.5993 12.052 12.4473 11.94C12.3033 11.828 12.1913 11.64 12.1113 11.376L11.7393 10.32C11.6913 10.184 11.6273 10.08 11.5473 10.008C11.4753 9.936 11.3753 9.884 11.2473 9.852V10.752C11.2473 11 11.2633 11.196 11.2953 11.34C11.3353 11.484 11.3993 11.624 11.4873 11.76L11.5833 11.88L11.4873 12H9.74728L9.67528 11.796L9.84328 11.76C9.97128 11.728 10.0553 11.68 10.0953 11.616C10.1353 11.544 10.1553 11.408 10.1553 11.208V6.876C10.1553 6.764 10.1033 6.708 9.99928 6.708H9.62728L9.57928 6.588C9.73128 6.444 9.92728 6.332 10.1673 6.252C10.4153 6.164 10.6593 6.12 10.8993 6.12C11.0033 6.12 11.0873 6.144 11.1513 6.192C11.2153 6.232 11.2473 6.292 11.2473 6.372V9.624L11.9673 9.096C12.1353 8.976 12.2513 8.88 12.3153 8.808C12.3793 8.736 12.4113 8.66 12.4113 8.58C12.4113 8.468 12.3633 8.372 12.2673 8.292L12.1713 8.22L12.2673 8.1H13.7193L13.7913 8.304C13.5913 8.352 13.3673 8.464 13.1193 8.64L11.7033 9.672C12.0553 9.712 12.3273 9.796 12.5193 9.924C12.7113 10.052 12.8513 10.236 12.9393 10.476L13.2753 11.436C13.3313 11.612 13.4433 11.7 13.6113 11.7C13.7313 11.7 13.8633 11.64 14.0073 11.52L14.1033 11.64ZM16.5133 11.712C16.7453 11.712 16.9493 11.672 17.1253 11.592C17.3013 11.504 17.4733 11.36 17.6413 11.16L17.7853 11.268C17.6013 11.532 17.3653 11.74 17.0773 11.892C16.7973 12.036 16.4893 12.108 16.1533 12.108C15.7853 12.108 15.4533 12.02 15.1573 11.844C14.8693 11.668 14.6413 11.428 14.4733 11.124C14.3053 10.812 14.2213 10.46 14.2213 10.068C14.2213 9.444 14.4093 8.948 14.7853 8.58C15.1693 8.204 15.6773 8.016 16.3093 8.016C16.7573 8.016 17.1213 8.124 17.4013 8.34C17.6893 8.548 17.8333 8.82 17.8333 9.156C17.8333 9.54 17.6693 9.848 17.3413 10.08C17.0213 10.304 16.5813 10.416 16.0213 10.416C15.7973 10.416 15.5933 10.4 15.4093 10.368C15.4493 10.784 15.5693 11.112 15.7693 11.352C15.9693 11.592 16.2173 11.712 16.5133 11.712ZM16.1773 8.304C15.9293 8.304 15.7333 8.456 15.5893 8.76C15.4533 9.056 15.3853 9.472 15.3853 10.008V10.2C15.4733 10.2 15.5813 10.192 15.7093 10.176C16.0453 10.136 16.3013 10.028 16.4773 9.852C16.6613 9.668 16.7533 9.428 16.7533 9.132C16.7533 8.892 16.6973 8.696 16.5853 8.544C16.4813 8.384 16.3453 8.304 16.1773 8.304Z" fill="#3C3B41"/>
<path d="M4.86 21.616C4.564 21.944 4.216 22.108 3.816 22.108C3.568 22.108 3.384 22.056 3.264 21.952C3.144 21.84 3.064 21.66 3.024 21.412C2.816 21.652 2.6 21.828 2.376 21.94C2.152 22.052 1.904 22.108 1.632 22.108C1.232 22.108 0.904 21.932 0.648 21.58C0.4 21.228 0.276 20.772 0.276 20.212C0.276 19.54 0.452 19.008 0.804 18.616C1.156 18.216 1.636 18.016 2.244 18.016C2.524 18.016 2.78 18.08 3.012 18.208V16.876C3.012 16.764 2.96 16.708 2.856 16.708H2.448L2.4 16.588C2.56 16.444 2.764 16.332 3.012 16.252C3.26 16.164 3.504 16.12 3.744 16.12C3.848 16.12 3.932 16.144 3.996 16.192C4.06 16.232 4.092 16.292 4.092 16.372V21.316C4.092 21.556 4.168 21.676 4.32 21.676C4.472 21.676 4.62 21.616 4.764 21.496L4.86 21.616ZM2.256 21.532C2.56 21.532 2.812 21.364 3.012 21.028V18.448C2.852 18.368 2.676 18.328 2.484 18.328C1.812 18.328 1.476 18.908 1.476 20.068C1.476 20.54 1.54 20.904 1.668 21.16C1.804 21.408 2 21.532 2.256 21.532ZM9.26644 21.316C9.26644 21.556 9.34244 21.676 9.49444 21.676C9.64644 21.676 9.79444 21.616 9.93844 21.496L10.0344 21.616C9.73844 21.944 9.39044 22.108 8.99044 22.108C8.70244 22.108 8.49444 22.036 8.36644 21.892C8.24644 21.74 8.18644 21.496 8.18644 21.16V19.324C8.18644 18.86 8.03844 18.628 7.74244 18.628C7.45444 18.628 7.22244 18.824 7.04644 19.216C6.87044 19.608 6.78244 20.12 6.78244 20.752C6.78244 21 6.79844 21.2 6.83044 21.352C6.87044 21.496 6.93444 21.632 7.02244 21.76L7.11844 21.88L7.02244 22H5.28244L5.21044 21.796L5.37844 21.76C5.50644 21.728 5.59044 21.68 5.63044 21.616C5.67044 21.544 5.69044 21.408 5.69044 21.208V16.924C5.69044 16.86 5.67444 16.808 5.64244 16.768C5.61844 16.728 5.58244 16.708 5.53444 16.708H5.16244L5.11444 16.588C5.26644 16.444 5.46244 16.332 5.70244 16.252C5.95044 16.164 6.19444 16.12 6.43444 16.12C6.53844 16.12 6.62244 16.144 6.68644 16.192C6.75044 16.232 6.78244 16.292 6.78244 16.372V19.336C6.89444 18.96 7.09044 18.648 7.37044 18.4C7.65844 18.144 7.96244 18.016 8.28244 18.016C8.62644 18.016 8.87444 18.128 9.02644 18.352C9.18644 18.576 9.26644 18.932 9.26644 19.42V21.316ZM11.7693 19.348C11.6013 19.444 11.4013 19.492 11.1693 19.492C11.0013 19.492 10.8693 19.444 10.7733 19.348C10.6773 19.244 10.6293 19.1 10.6293 18.916C10.6293 18.644 10.7613 18.428 11.0253 18.268C11.2973 18.1 11.6493 18.016 12.0813 18.016C12.5933 18.016 12.9933 18.128 13.2813 18.352C13.5773 18.576 13.7253 18.88 13.7253 19.264V21.34C13.7253 21.564 13.8053 21.676 13.9653 21.676C14.1173 21.676 14.2653 21.616 14.4093 21.496L14.5053 21.616C14.2093 21.944 13.8573 22.108 13.4493 22.108C13.2093 22.108 13.0253 22.048 12.8973 21.928C12.7773 21.808 12.7053 21.62 12.6813 21.364H12.6333C12.5053 21.596 12.3333 21.78 12.1173 21.916C11.9093 22.044 11.6693 22.108 11.3973 22.108C11.0933 22.108 10.8493 22.016 10.6653 21.832C10.4813 21.64 10.3893 21.392 10.3893 21.088C10.3893 20.744 10.5533 20.472 10.8813 20.272C11.2093 20.072 11.6533 19.972 12.2133 19.972C12.3173 19.972 12.4653 19.98 12.6573 19.996V19.396C12.6573 19.004 12.6093 18.724 12.5133 18.556C12.4173 18.38 12.2613 18.292 12.0453 18.292C11.8933 18.292 11.7733 18.34 11.6853 18.436C11.5973 18.532 11.5533 18.656 11.5533 18.808C11.5533 19.048 11.6253 19.228 11.7693 19.348ZM11.9493 21.508C12.4213 21.508 12.6573 21.08 12.6573 20.224C12.2573 20.224 11.9573 20.292 11.7573 20.428C11.5573 20.556 11.4573 20.74 11.4573 20.98C11.4573 21.14 11.5013 21.268 11.5893 21.364C11.6773 21.46 11.7973 21.508 11.9493 21.508ZM19.2361 21.64C18.9561 21.952 18.6081 22.108 18.1921 22.108C17.9361 22.108 17.7321 22.052 17.5801 21.94C17.4361 21.828 17.3241 21.64 17.2441 21.376L16.8721 20.32C16.8241 20.184 16.7601 20.08 16.6801 20.008C16.6081 19.936 16.5081 19.884 16.3801 19.852V20.752C16.3801 21 16.3961 21.196 16.4281 21.34C16.4681 21.484 16.5321 21.624 16.6201 21.76L16.7161 21.88L16.6201 22H14.8801L14.8081 21.796L14.9761 21.76C15.1041 21.728 15.1881 21.68 15.2281 21.616C15.2681 21.544 15.2881 21.408 15.2881 21.208V16.876C15.2881 16.764 15.2361 16.708 15.1321 16.708H14.7601L14.7121 16.588C14.8641 16.444 15.0601 16.332 15.3001 16.252C15.5481 16.164 15.7921 16.12 16.0321 16.12C16.1361 16.12 16.2201 16.144 16.2841 16.192C16.3481 16.232 16.3801 16.292 16.3801 16.372V19.624L17.1001 19.096C17.2681 18.976 17.3841 18.88 17.4481 18.808C17.5121 18.736 17.5441 18.66 17.5441 18.58C17.5441 18.468 17.4961 18.372 17.4001 18.292L17.3041 18.22L17.4001 18.1H18.8521L18.9241 18.304C18.7241 18.352 18.5001 18.464 18.2521 18.64L16.8361 19.672C17.1881 19.712 17.4601 19.796 17.6521 19.924C17.8441 20.052 17.9841 20.236 18.0721 20.476L18.4081 21.436C18.4641 21.612 18.5761 21.7 18.7441 21.7C18.8641 21.7 18.9961 21.64 19.1401 21.52L19.2361 21.64ZM23.4461 21.316C23.4461 21.556 23.5221 21.676 23.6741 21.676C23.8261 21.676 23.9741 21.616 24.1181 21.496L24.2141 21.616C23.9181 21.944 23.5701 22.108 23.1701 22.108C22.8821 22.108 22.6741 22.036 22.5461 21.892C22.4261 21.74 22.3661 21.496 22.3661 21.16V19.324C22.3661 18.86 22.2181 18.628 21.9221 18.628C21.6341 18.628 21.4021 18.824 21.2261 19.216C21.0501 19.608 20.9621 20.12 20.9621 20.752C20.9621 21 20.9781 21.2 21.0101 21.352C21.0501 21.496 21.1141 21.632 21.2021 21.76L21.2981 21.88L21.2021 22H19.4621L19.3901 21.796L19.5581 21.76C19.6861 21.728 19.7701 21.68 19.8101 21.616C19.8501 21.544 19.8701 21.408 19.8701 21.208V16.924C19.8701 16.86 19.8541 16.808 19.8221 16.768C19.7981 16.728 19.7621 16.708 19.7141 16.708H19.3421L19.2941 16.588C19.4461 16.444 19.6421 16.332 19.8821 16.252C20.1301 16.164 20.3741 16.12 20.6141 16.12C20.7181 16.12 20.8021 16.144 20.8661 16.192C20.9301 16.232 20.9621 16.292 20.9621 16.372V19.336C21.0741 18.96 21.2701 18.648 21.5501 18.4C21.8381 18.144 22.1421 18.016 22.4621 18.016C22.8061 18.016 23.0541 18.128 23.2061 18.352C23.3661 18.576 23.4461 18.932 23.4461 19.42V21.316ZM24.569 20.068C24.569 19.436 24.749 18.936 25.109 18.568C25.477 18.2 25.973 18.016 26.597 18.016C27.221 18.016 27.717 18.204 28.085 18.58C28.453 18.948 28.637 19.444 28.637 20.068C28.637 20.692 28.453 21.188 28.085 21.556C27.717 21.924 27.221 22.108 26.597 22.108C25.973 22.108 25.477 21.924 25.109 21.556C24.749 21.188 24.569 20.692 24.569 20.068ZM27.425 20.092C27.425 19.556 27.349 19.12 27.197 18.784C27.045 18.44 26.853 18.268 26.621 18.268C26.365 18.268 26.157 18.436 25.997 18.772C25.837 19.1 25.757 19.532 25.757 20.068C25.757 20.612 25.829 21.044 25.973 21.364C26.125 21.684 26.325 21.844 26.573 21.844C26.821 21.844 27.025 21.684 27.185 21.364C27.345 21.036 27.425 20.612 27.425 20.092ZM29.1742 21.424C29.1742 21.288 29.2502 21.14 29.4022 20.98C29.5542 20.812 29.6942 20.728 29.8222 20.728C29.9502 20.728 30.0902 20.812 30.2422 20.98C30.4022 21.14 30.4822 21.288 30.4822 21.424C30.4822 21.56 30.4022 21.708 30.2422 21.868C30.0902 22.028 29.9502 22.108 29.8222 22.108C29.6942 22.108 29.5542 22.028 29.4022 21.868C29.2502 21.708 29.1742 21.56 29.1742 21.424ZM34.5777 19.072C34.5777 19.336 34.4977 19.544 34.3377 19.696C34.1777 19.848 33.9817 19.924 33.7497 19.924C33.5657 19.924 33.3977 19.876 33.2457 19.78C33.4217 19.62 33.5097 19.396 33.5097 19.108C33.5097 18.876 33.4617 18.688 33.3657 18.544C33.2697 18.392 33.1297 18.316 32.9457 18.316C32.7377 18.316 32.5657 18.48 32.4297 18.808C32.3017 19.128 32.2377 19.548 32.2377 20.068C32.2377 20.564 32.3297 20.964 32.5137 21.268C32.7057 21.564 32.9737 21.712 33.3177 21.712C33.5577 21.712 33.7617 21.668 33.9297 21.58C34.1057 21.492 34.2697 21.364 34.4217 21.196L34.5657 21.292C34.3977 21.532 34.1777 21.728 33.9057 21.88C33.6337 22.032 33.3177 22.108 32.9577 22.108C32.3977 22.108 31.9377 21.92 31.5777 21.544C31.2177 21.168 31.0377 20.684 31.0377 20.092C31.0377 19.46 31.2257 18.956 31.6017 18.58C31.9777 18.204 32.4777 18.016 33.1017 18.016C33.5417 18.016 33.8977 18.116 34.1697 18.316C34.4417 18.508 34.5777 18.76 34.5777 19.072ZM35.069 20.068C35.069 19.436 35.249 18.936 35.609 18.568C35.977 18.2 36.473 18.016 37.097 18.016C37.721 18.016 38.217 18.204 38.585 18.58C38.953 18.948 39.137 19.444 39.137 20.068C39.137 20.692 38.953 21.188 38.585 21.556C38.217 21.924 37.721 22.108 37.097 22.108C36.473 22.108 35.977 21.924 35.609 21.556C35.249 21.188 35.069 20.692 35.069 20.068ZM37.925 20.092C37.925 19.556 37.849 19.12 37.697 18.784C37.545 18.44 37.353 18.268 37.121 18.268C36.865 18.268 36.657 18.436 36.497 18.772C36.337 19.1 36.257 19.532 36.257 20.068C36.257 20.612 36.329 21.044 36.473 21.364C36.625 21.684 36.825 21.844 37.073 21.844C37.321 21.844 37.525 21.684 37.685 21.364C37.845 21.036 37.925 20.612 37.925 20.092ZM43.6942 19.336C43.6862 18.88 43.6062 18.548 43.4542 18.34C43.3022 18.124 43.0622 18.016 42.7342 18.016C42.4222 18.016 42.1422 18.144 41.8942 18.4C41.6462 18.656 41.4702 18.968 41.3662 19.336V18.352C41.3662 18.272 41.3342 18.212 41.2702 18.172C41.2142 18.124 41.1342 18.1 41.0302 18.1C40.7902 18.1 40.5502 18.144 40.3102 18.232C40.0702 18.32 39.8702 18.432 39.7102 18.568L39.7462 18.688H40.1302C40.2342 18.688 40.2862 18.748 40.2862 18.868V21.208C40.2862 21.408 40.2662 21.544 40.2262 21.616C40.1862 21.68 40.1022 21.728 39.9742 21.76L39.8062 21.796L39.8782 22H41.6182L41.7142 21.88L41.6182 21.76C41.5222 21.624 41.4542 21.484 41.4142 21.34C41.3822 21.196 41.3662 21 41.3662 20.752C41.3662 20.192 41.4382 19.7 41.5822 19.276C41.7262 18.844 41.9262 18.628 42.1822 18.628C42.4862 18.628 42.6382 18.86 42.6382 19.324V22H43.9702L44.0662 21.88L43.9702 21.76C43.8822 21.624 43.8182 21.484 43.7782 21.34C43.7462 21.196 43.7262 21 43.7182 20.752C43.7182 20.192 43.7902 19.7 43.9342 19.276C44.0782 18.844 44.2782 18.628 44.5342 18.628C44.8382 18.628 44.9902 18.86 44.9902 19.324V21.052C44.9902 21.444 45.0502 21.72 45.1702 21.88C45.2902 22.032 45.4982 22.108 45.7942 22.108C46.1942 22.108 46.5422 21.944 46.8382 21.616L46.7422 21.496C46.5982 21.616 46.4502 21.676 46.2982 21.676C46.1462 21.676 46.0702 21.556 46.0702 21.316V19.42C46.0702 18.94 45.9902 18.588 45.8302 18.364C45.6782 18.132 45.4302 18.016 45.0862 18.016C44.7982 18.016 44.5262 18.14 44.2702 18.388C44.0142 18.636 43.8302 18.952 43.7182 19.336H43.6942Z" fill="#3C3B41"/>
<g clip-path="url(#clip0_1301_1467)">
<path fill-rule="evenodd" clip-rule="evenodd" d="M23.1602 8.13289V14.9835H44.7937V8.13289H23.1602ZM26.6215 2.24316V8.01211H41.3323V2.24316H26.6215Z" fill="#FFA6A4"/>
<path fill-rule="evenodd" clip-rule="evenodd" d="M27.9199 1.00684C26.9851 1.00663 26.1892 1.61154 26.1892 2.40768V3.46108C26.1892 3.46108 28.4549 4.48799 29.7436 4.50901C31.1894 4.53283 32.3587 3.46108 33.8049 3.46108C35.2511 3.46108 36.4218 4.50901 37.8679 4.50901C39.2566 4.50901 40.3937 3.55309 41.762 3.47617V2.40768C41.762 1.63403 40.9872 1.00684 40.0313 1.00684H27.9199ZM45.2237 10.4653C45.2237 10.4653 43.39 11.6993 42.1013 11.7248C40.6555 11.7536 39.4851 10.4653 38.039 10.4653C36.5927 10.4653 35.4227 11.7248 33.9765 11.7248C32.5303 11.7248 31.3604 10.4653 29.9141 10.4653C28.468 10.4653 27.7309 11.7534 26.2851 11.7248C24.9964 11.6992 22.7305 10.4653 22.7305 10.4653V9.19865C22.7305 8.31872 23.4618 7.6046 24.3661 7.6046H43.5938C44.4981 7.6046 45.2308 8.31872 45.2294 9.19865L45.2237 10.4653Z" fill="#F8D9C3"/>
<path opacity="0.8" fill-rule="evenodd" clip-rule="evenodd" d="M29.9149 11.9082C29.0906 11.9082 28.4757 12.276 27.9308 12.5939C27.3859 12.9118 26.9136 13.1792 26.2929 13.1669C25.7532 13.1562 24.8702 12.8602 24.1583 12.5552C23.7073 12.3621 23.3847 12.2016 23.1611 12.0869V12.779C23.376 12.8836 23.6024 12.9949 23.8913 13.1186C24.6344 13.437 25.5305 13.7702 26.2795 13.785C27.1045 13.8013 27.7237 13.4393 28.2704 13.1203C28.8171 12.8012 29.2929 12.5263 29.9149 12.5263C30.5391 12.5263 31.1454 12.807 31.7995 13.1218C32.4536 13.4367 33.1559 13.785 33.9779 13.785C34.7999 13.785 35.5007 13.4367 36.1548 13.1218C36.8088 12.807 37.415 12.5263 38.0393 12.5263C38.6612 12.5263 39.2688 12.8141 39.9238 13.1331C40.5787 13.452 41.2832 13.8015 42.1091 13.785C42.859 13.7702 43.6586 13.4322 44.2978 13.1106C44.4973 13.0102 44.6368 12.9256 44.7947 12.8354V12.1175C44.6093 12.2322 44.3498 12.3849 43.9953 12.5633C43.3955 12.8651 42.6344 13.1563 42.0956 13.1669C41.4756 13.1793 40.871 12.9007 40.2178 12.5826C39.5646 12.2646 38.8635 11.9082 38.0393 11.9082C37.2172 11.9082 36.5164 12.2565 35.8624 12.5714C35.2083 12.8863 34.6021 13.1669 33.9779 13.1669C33.3537 13.1669 32.7459 12.8863 32.0917 12.5714C31.4377 12.2565 30.7369 11.9082 29.9149 11.9082Z" fill="#FF8687"/>
<path opacity="0.8" d="M27.7707 6.82323C28.0091 6.82323 28.2024 6.63909 28.2024 6.41201C28.2024 6.18493 28.0091 6.00098 27.7707 6.00098C27.5322 6.00098 27.3389 6.18493 27.3389 6.41201C27.3389 6.63909 27.5322 6.82323 27.7707 6.82323Z" fill="#FF9290"/>
<path opacity="0.8" d="M29.3927 6.19149C29.7503 6.19149 30.0405 5.91537 30.0405 5.57475C30.0405 5.23413 29.7503 4.95801 29.3927 4.95801C29.035 4.95801 28.7451 5.23413 28.7451 5.57475C28.7451 5.91537 29.035 6.19149 29.3927 6.19149Z" fill="#FF8687"/>
<path opacity="0.8" d="M30.7896 6.94487C30.9684 6.94487 31.1134 6.80681 31.1134 6.6365C31.1134 6.46619 30.9684 6.32812 30.7896 6.32812C30.6108 6.32812 30.4658 6.46619 30.4658 6.6365C30.4658 6.80681 30.6108 6.94487 30.7896 6.94487Z" fill="#FF9290"/>
<path opacity="0.8" d="M31.9111 5.30947C32.0303 5.30947 32.1271 5.21749 32.1271 5.10395C32.1271 4.99041 32.0303 4.89844 31.9111 4.89844C31.7919 4.89844 31.6953 4.99041 31.6953 5.10395C31.6953 5.21749 31.7919 5.30947 31.9111 5.30947Z" fill="#FF8687"/>
<path opacity="0.8" d="M33.0591 6.59027C33.3572 6.59027 33.5987 6.36024 33.5987 6.07639C33.5987 5.79254 33.3572 5.5625 33.0591 5.5625C32.7611 5.5625 32.5195 5.79254 32.5195 6.07639C32.5195 6.36024 32.7611 6.59027 33.0591 6.59027Z" fill="#FF8687"/>
<path opacity="0.8" d="M34.3966 5.0451C34.6351 5.0451 34.8284 4.86096 34.8284 4.63388C34.8284 4.4068 34.6351 4.22266 34.3966 4.22266C34.1582 4.22266 33.9648 4.4068 33.9648 4.63388C33.9648 4.86096 34.1582 5.0451 34.3966 5.0451Z" fill="#FF9290"/>
<path opacity="0.8" d="M35.5191 7.14115C35.6979 7.14115 35.8429 7.00309 35.8429 6.83278C35.8429 6.66247 35.6979 6.52441 35.5191 6.52441C35.3403 6.52441 35.1953 6.66247 35.1953 6.83278C35.1953 7.00309 35.3403 7.14115 35.5191 7.14115Z" fill="#FF9290"/>
<path opacity="0.8" d="M36.0156 5.92001C36.1348 5.92001 36.2314 5.82785 36.2314 5.71431C36.2314 5.60077 36.1348 5.50879 36.0156 5.50879C35.8964 5.50879 35.7998 5.60077 35.7998 5.71431C35.7998 5.82785 35.8964 5.92001 36.0156 5.92001Z" fill="#FF8687"/>
<path opacity="0.8" d="M37.9396 6.46786C38.2972 6.46786 38.5871 6.19174 38.5871 5.85112C38.5871 5.5105 38.2972 5.23438 37.9396 5.23438C37.5819 5.23438 37.292 5.5105 37.292 5.85112C37.292 6.19174 37.5819 6.46786 37.9396 6.46786Z" fill="#FF9290"/>
<path opacity="0.8" d="M39.5416 5.1099C39.7204 5.1099 39.8654 4.97184 39.8654 4.80153C39.8654 4.63122 39.7204 4.49316 39.5416 4.49316C39.3627 4.49316 39.2178 4.63122 39.2178 4.80153C39.2178 4.97184 39.3627 5.1099 39.5416 5.1099Z" fill="#FF9290"/>
<path opacity="0.8" d="M39.9082 6.82919C40.0274 6.82919 40.124 6.73703 40.124 6.62349C40.124 6.50995 40.0274 6.41797 39.9082 6.41797C39.789 6.41797 39.6924 6.50995 39.6924 6.62349C39.6924 6.73703 39.789 6.82919 39.9082 6.82919Z" fill="#FF8687"/>
<path d="M24.2334 8.79144L24.6123 8.49543M24.6981 9.81351L25.1093 10.105M26.2799 9.23955L26.8459 9.10627M31.3049 9.86807L31.8402 10.0502M29.5074 9.50381L29.8191 9.17434M33.4083 8.84828L34.0393 8.90285M30.7333 8.14295L31.2284 8.26386M34.1349 10.378L34.6703 10.2687M36.0471 9.57681L36.5058 9.61294M38.3202 8.26386H38.7358M38.5767 9.73157L38.877 9.92264M40.6075 8.88479L40.6273 9.33993M41.4777 10.5418L41.8983 10.8335M43.1794 9.41217L43.199 9.72244M41.8026 8.54619H42.1851M27.5907 10.4782H27.0261M29.0767 3.76264L29.612 3.94478M28.2263 1.93866L27.9147 1.60938M31.1799 2.74285L31.8111 2.79723M36.092 2.15843H36.5076M36.3485 3.62614L36.6488 3.81702" stroke="#F5C7A5" stroke-width="0.248568" stroke-linecap="round" stroke-linejoin="round"/>
<path d="M29.621 1.91367L30.1562 1.80436M32.5257 1.76367L32.9844 1.79979M34.2299 2.827L34.7958 2.69373M37.9986 2.50855L38.0181 2.96388M40.2848 2.25341L40.3046 2.56369M39.2895 3.28252L39.7101 3.57397M38.5266 1.83154H38.909M27.9443 3.11427L28.3556 2.82282" stroke="#F5C7A5" stroke-width="0.248568" stroke-linecap="round" stroke-linejoin="round"/>
</g>
<defs>
<clipPath id="clip0_1301_1467">
<rect width="24" height="16" fill="white" transform="translate(23)"/>
</clipPath>
</defs>
</svg>
